<svg width="22" height="20" viewBox="0 0 22 20" fill="none" xmlns="http://www.w3.org/2000/svg">
<path d="M19.3794 8.36775H18.6869V8.33317H10.9496V11.6665H15.8082C15.0994 13.6069 13.1947 14.9998 10.9496 14.9998C8.10095 14.9998 5.79136 12.7611 5.79136 9.99984C5.79136 7.23859 8.10095 4.99984 10.9496 4.99984C12.2645 4.99984 13.4608 5.48067 14.3716 6.26609L16.8033 3.909C15.2679 2.52192 13.214 1.6665 10.9496 1.6665C6.20187 1.6665 2.35254 5.39775 2.35254 9.99984C2.35254 14.6019 6.20187 18.3332 10.9496 18.3332C15.6973 18.3332 19.5466 14.6019 19.5466 9.99984C19.5466 9.44109 19.4873 8.89567 19.3794 8.36775Z" fill="#FBC02D"/>
<path d="M3.34375 6.12109L6.16831 8.129C6.93259 6.29484 8.78353 4.99984 10.9496 4.99984C12.2645 4.99984 13.4608 5.48067 14.3716 6.26609L16.8033 3.909C15.2679 2.52192 13.214 1.6665 10.9496 1.6665C7.64743 1.6665 4.78376 3.47359 3.34375 6.12109Z" fill="#E53935"/>
<path d="M10.9494 18.3331C13.17 18.3331 15.1878 17.5094 16.7133 16.1698L14.0525 13.9873C13.1894 14.621 12.1165 14.9998 10.9494 14.9998C8.71333 14.9998 6.81467 13.6177 6.0994 11.689L3.2959 13.7827C4.71871 16.4815 7.60818 18.3331 10.9494 18.3331Z" fill="#4CAF50"/>
<path d="M19.3791 8.36808L19.3722 8.3335H18.6866H10.9492V11.6668H15.8078C15.4674 12.5989 14.8488 13.4027 14.051 13.9881C14.0515 13.9877 14.0519 13.9877 14.0523 13.9872L16.7131 16.1697C16.5248 16.3356 19.5463 14.1668 19.5463 10.0002C19.5463 9.44141 19.4869 8.896 19.3791 8.36808Z" fill="#1565C0"/>
</svg>
